<svg x="0" y="0" width="300" height="300" version="1.1" xmlns="http://www.w3.org/2000/svg" xmlns:xlink="http://www.w3.org/1999/xlink"><g data-paper-data="{&quot;description&quot;:&quot;Logo for stacywebb.com\n======================\n\nThis logo was generated by MarkMaker and is composed of elements designed by others.\n\nThe font is Varta Regular designed by Sorkin Type Co and released under the OFL license via Google Fonts: https://www.google.com/fonts/specimen/Varta. The font includes this copyright statement: Copyright (c) 2014-2015, Sorkin Type Co (sorkintype.com | sorkintype@gmail.com)\n\nMarkMaker uses semantic data from the Princeton University WordNet database http://wordnet.princeton.edu and font descriptions from Google Fonts https://www.google.com/fonts.\n\nThis design is inspired by designs that past users of MarkMaker have liked. As a result, it may be visually similar to past or future designs generated by the system. There is no guarantee that it is unique, original, or suitable in any way for use as a logo.\n\n&quot;}" fill="none" stroke="none" stroke-width="none" stroke-linecap="butt" stroke-linejoin="miter" stroke-miterlimit="10" stroke-dasharray="" stroke-dashoffset="0" font-family="sans-serif" font-weight="normal" font-size="12" text-anchor="start" mix-blend-mode="normal"><path d="M54.29638,270l0,-240l191.40724,0l0,240z" fill="none" stroke="#bbf1f1" stroke-width="2.1"></path><g data-paper-data="{&quot;elementType&quot;:&quot;logo&quot;}" fill="#bbf1f1" stroke-width="1"><g data-paper-data="{&quot;elementType&quot;:&quot;text&quot;}"><g data-paper-data="{&quot;baseline&quot;:71.19140625,&quot;elementType&quot;:&quot;row&quot;}"><g data-paper-data="{&quot;baselineProportion&quot;:0.7726550079491256,&quot;fontSize&quot;:100,&quot;baseline&quot;:71.19140625,&quot;elementType&quot;:&quot;word&quot;}"><path d="M77.63334,245.20984c0.5741,0 1.01365,-0.12708 1.31864,-0.38124c0.30499,-0.25416 0.45749,-0.58457 0.45749,-0.99122c0,-0.28705 -0.09568,-0.53373 -0.28705,-0.74005c-0.19137,-0.20632 -0.4231,-0.37825 -0.6952,-0.51579c-0.2721,-0.13755 -0.62643,-0.28705 -1.06298,-0.44852c-0.52028,-0.18539 -0.97029,-0.38423 -1.35003,-0.59653c-0.37974,-0.2123 -0.6952,-0.48589 -0.94637,-0.82079c-0.25117,-0.33489 -0.37675,-0.73557 -0.37675,-1.20202c0,-0.47842 0.12259,-0.90899 0.36778,-1.29173c0.24519,-0.38273 0.59952,-0.68174 1.06298,-0.89703c0.46347,-0.21529 1.01215,-0.32293 1.64606,-0.32293c0.52626,0 1.0271,0.0897 1.50253,0.26911c0.47543,0.17941 0.89554,0.41563 1.26033,0.70866l-0.70866,0.94188c-0.32891,-0.24519 -0.65782,-0.43207 -0.98674,-0.56065c-0.32891,-0.12857 -0.68174,-0.19286 -1.0585,-0.19286c-0.53822,0 -0.94786,0.11362 -1.22894,0.34087c-0.28107,0.22725 -0.42161,0.52028 -0.42161,0.87909c0,0.25715 0.0897,0.4829 0.26911,0.67726c0.17941,0.19436 0.40665,0.3618 0.68174,0.50234c0.27509,0.14054 0.62194,0.29154 1.04056,0.453c0.5741,0.20931 1.04355,0.41264 1.40834,0.60998c0.36479,0.19735 0.67576,0.46795 0.93291,0.81181c0.25715,0.34386 0.38572,0.77892 0.38572,1.30518c0,0.49038 -0.12708,0.93441 -0.38124,1.33209c-0.25416,0.39768 -0.62792,0.71314 -1.12129,0.94637c-0.49337,0.23323 -1.08092,0.34984 -1.76267,0.34984c-0.604,0 -1.18857,-0.11362 -1.7537,-0.34087c-0.56513,-0.22725 -1.07494,-0.52626 -1.52944,-0.89703l0.74454,-0.99571c0.43656,0.35283 0.85368,0.61895 1.25136,0.79836c0.39768,0.17941 0.84471,0.26911 1.34106,0.26911z" data-paper-data="{&quot;elementType&quot;:&quot;letter&quot;,&quot;baseline&quot;:49.8046875,&quot;baselineProportion&quot;:0.9760765550239234,&quot;fontSize&quot;:100}"></path><path d="M84.56791,238.44622l0,-1.13026l1.39937,-0.0897l0.17941,-2.50272l1.25585,0l0,2.50272l2.41302,0l0,1.21996l-2.41302,0l0,4.97853c0,0.5741 0.10615,1.00468 0.31845,1.29173c0.2123,0.28705 0.56663,0.43058 1.06298,0.43058c0.25117,0 0.58905,-0.07774 1.01365,-0.23323l0.29602,1.13026c-0.68773,0.22127 -1.2409,0.3319 -1.65951,0.3319c-0.90301,0 -1.55187,-0.26014 -1.94656,-0.78042c-0.39469,-0.52028 -0.59204,-1.24987 -0.59204,-2.18876l0,-4.96059l-1.32761,0z" data-paper-data="{&quot;elementType&quot;:&quot;letter&quot;,&quot;baseline&quot;:62.20703125,&quot;baselineProportion&quot;:0.9807544264819091,&quot;fontSize&quot;:100}"></path><path d="M97.70994,238.2399c-0.50234,0 -0.99122,0.07176 -1.46665,0.21529c-0.47543,0.14353 -0.89554,0.33489 -1.26033,0.5741l-0.59204,-1.02262c0.44852,-0.28705 0.98524,-0.52626 1.61017,-0.71763c0.62493,-0.19137 1.27528,-0.28705 1.95105,-0.28705c1.07046,0 1.85835,0.31247 2.36368,0.9374c0.50533,0.62493 0.75799,1.53841 0.75799,2.74044l0,5.4719l-1.22894,0l-0.13455,-1.06747l-0.03588,0c-0.37077,0.30499 -0.68174,0.54121 -0.93291,0.70866c-0.25117,0.16745 -0.53672,0.30649 -0.85667,0.41712c-0.31994,0.11063 -0.68025,0.16595 -1.08092,0.16595c-0.53224,0 -1.00318,-0.10166 -1.41283,-0.30499c-0.40965,-0.20333 -0.72959,-0.49785 -0.95983,-0.88358c-0.23024,-0.38572 -0.34536,-0.84172 -0.34536,-1.36798c0,-0.9987 0.44553,-1.78061 1.33658,-2.34574c0.89105,-0.56513 2.27846,-0.89255 4.16223,-0.98225c0,-0.72959 -0.14054,-1.28724 -0.42161,-1.67297c-0.28107,-0.38572 -0.76547,-0.57859 -1.45319,-0.57859 M99.58474,243.97194l0,-2.49375c-1.42927,0.0598 -2.45638,0.29303 -3.08131,0.69969c-0.62493,0.40665 -0.9374,0.92693 -0.9374,1.56084c0,0.4844 0.14652,0.84321 0.43955,1.07644c0.29303,0.23323 0.6967,0.34984 1.21099,0.34984c0.40665,0 0.7849,-0.09419 1.13475,-0.28257c0.34984,-0.18838 0.76098,-0.49187 1.23342,-0.91049z" data-paper-data="{&quot;elementType&quot;:&quot;letter&quot;,&quot;baseline&quot;:49.8046875,&quot;baselineProportion&quot;:0.9760765550239234,&quot;fontSize&quot;:100}"></path><path d="M112.86133,238.04255l-0.74454,0.95983c-0.28107,-0.24519 -0.57111,-0.43357 -0.87012,-0.56513c-0.29901,-0.13156 -0.61895,-0.19735 -0.95983,-0.19735c-0.5442,0 -1.0271,0.13755 -1.44871,0.41264c-0.42161,0.27509 -0.75052,0.67128 -0.98674,1.18857c-0.23622,0.51729 -0.35433,1.12578 -0.35433,1.82546c0,0.70567 0.11512,1.32013 0.34536,1.8434c0.23024,0.52327 0.55317,0.92544 0.9688,1.20651c0.41563,0.28107 0.89554,0.42161 1.43974,0.42161c0.74753,0 1.42927,-0.2721 2.04523,-0.8163l0.67277,0.98674c-0.81331,0.71165 -1.76117,1.06747 -2.84359,1.06747c-0.80135,0 -1.51599,-0.1809 -2.14391,-0.5427c-0.62792,-0.3618 -1.12129,-0.89703 -1.4801,-1.60569c-0.35881,-0.70866 -0.53822,-1.56233 -0.53822,-2.56103c0,-0.9987 0.19137,-1.84938 0.5741,-2.55206c0.38273,-0.70268 0.89853,-1.23043 1.54738,-1.58326c0.64885,-0.35283 1.36499,-0.52925 2.14839,-0.52925c1.02262,0 1.89872,0.34685 2.62831,1.04056z" data-paper-data="{&quot;elementType&quot;:&quot;letter&quot;,&quot;baseline&quot;:49.8046875,&quot;baselineProportion&quot;:0.9760765550239234,&quot;fontSize&quot;:100}"></path><path d="M119.78693,246.84244l0.20632,-0.67277l-3.57916,-8.94342l1.5429,0l1.82098,4.96059c0.24519,0.67576 0.53523,1.513 0.87012,2.51169l0.07176,0c0.14951,-0.47244 0.29004,-0.94786 0.42161,-1.42628c0.04186,-0.13755 0.08821,-0.29901 0.13904,-0.4844c0.05083,-0.18539 0.10914,-0.38572 0.17492,-0.60101l1.58775,-4.96059l1.48907,0l-3.36387,9.67001c-0.35283,0.98076 -0.78789,1.74323 -1.30518,2.28743c-0.51729,0.5442 -1.19455,0.8163 -2.03178,0.8163c-0.37675,0 -0.72062,-0.0598 -1.03159,-0.17941l0.27808,-1.19305c0.26911,0.0897 0.49636,0.13455 0.68174,0.13455c0.4844,0 0.89404,-0.17193 1.22894,-0.51579c0.33489,-0.34386 0.60101,-0.81181 0.79836,-1.40386z" data-paper-data="{&quot;elementType&quot;:&quot;letter&quot;,&quot;baseline&quot;:48.583984375,&quot;baselineProportion&quot;:0.6987359550561798,&quot;fontSize&quot;:100}"></path><path d="M129.41259,237.22625l1.33658,5.17588c0.18539,0.79537 0.3618,1.62363 0.52925,2.48478l0.07176,0l0.21529,-0.88806c0.17941,-0.75351 0.31097,-1.28575 0.39469,-1.59672l1.38143,-5.17588l1.45319,0l1.40834,5.17588l0.62792,2.48478l0.07176,0c0.12558,-0.52028 0.30798,-1.34854 0.54719,-2.48478l1.31864,-5.17588l1.40834,0l-2.38611,8.92548l-1.82098,0l-1.29173,-4.81707c-0.0897,-0.34087 -0.20333,-0.81032 -0.34087,-1.40834c-0.08372,-0.37675 -0.17343,-0.76248 -0.26911,-1.15717l-0.07176,0c-0.24519,1.12428 -0.45151,1.98842 -0.61895,2.59243l-1.26482,4.79016l-1.74024,0l-2.48478,-8.92548l1.52496,0z" data-paper-data="{&quot;elementType&quot;:&quot;letter&quot;,&quot;baseline&quot;:48.583984375,&quot;baselineProportion&quot;:1,&quot;fontSize&quot;:100}"></path><path d="M151.7223,241.19114c0,0.33489 -0.01794,0.60998 -0.05382,0.82527l-6.03703,0c0.03588,0.65782 0.1809,1.22295 0.43506,1.69539c0.25416,0.47244 0.60101,0.83275 1.04056,1.08092c0.43955,0.24818 0.94338,0.37227 1.5115,0.37227c0.43058,0 0.82527,-0.04934 1.18408,-0.14801c0.35881,-0.09867 0.70268,-0.25266 1.03159,-0.46197l0.52028,0.97777c-0.86713,0.56214 -1.83892,0.84321 -2.91536,0.84321c-0.80733,0 -1.53542,-0.1824 -2.18428,-0.54719c-0.64885,-0.36479 -1.16166,-0.90002 -1.53841,-1.60569c-0.37675,-0.70567 -0.56513,-1.54888 -0.56513,-2.52963c0,-0.9688 0.17941,-1.80752 0.53822,-2.51618c0.35881,-0.70866 0.84172,-1.24987 1.44871,-1.62363c0.60699,-0.37376 1.27827,-0.56065 2.01384,-0.56065c1.19006,0 2.08261,0.3618 2.67764,1.08541c0.59503,0.72361 0.89255,1.76117 0.89255,3.1127 M148.18799,238.18608c-0.4545,0 -0.86564,0.11063 -1.23342,0.3319c-0.36778,0.22127 -0.66978,0.54719 -0.906,0.97777c-0.23622,0.43058 -0.38124,0.94487 -0.43506,1.5429l4.8081,0c0,-1.90171 -0.74454,-2.85256 -2.23361,-2.85256z" data-paper-data="{&quot;elementType&quot;:&quot;letter&quot;,&quot;baseline&quot;:49.853515625,&quot;baselineProportion&quot;:0.9760994263862333,&quot;fontSize&quot;:100}"></path><path d="M158.12762,233.07299l0,3.56122l-0.03588,1.62363c0.43058,-0.38273 0.88806,-0.68773 1.37246,-0.91497c0.4844,-0.22725 0.97179,-0.34087 1.46216,-0.34087c1.1781,0 2.0557,0.39619 2.63279,1.18857c0.57709,0.79238 0.86564,1.91816 0.86564,3.37733c0,1.01066 -0.16745,1.87779 -0.50234,2.6014c-0.33489,0.72361 -0.79238,1.27229 -1.37246,1.64606c-0.58008,0.37376 -1.22894,0.56065 -1.94656,0.56065c-0.43058,0 -0.87012,-0.09568 -1.31864,-0.28705c-0.44852,-0.19137 -0.87012,-0.46347 -1.26482,-0.8163l-0.06279,0l-0.12558,0.87909l-1.19305,0l0,-13.07874l1.48907,0 M162.88189,241.58583c0,-1.08242 -0.17642,-1.90769 -0.52925,-2.47581c-0.35283,-0.56812 -0.95085,-0.85218 -1.79407,-0.85218c-0.75351,0 -1.56383,0.40665 -2.43096,1.21996l0,4.70045c0.37077,0.32293 0.74902,0.56065 1.13475,0.71314c0.38572,0.1525 0.74902,0.22874 1.08989,0.22874c0.50832,0 0.95235,-0.13904 1.33209,-0.41712c0.37974,-0.27808 0.67427,-0.68174 0.88358,-1.21099c0.20931,-0.52925 0.31396,-1.16465 0.31396,-1.90619z" data-paper-data="{&quot;elementType&quot;:&quot;letter&quot;,&quot;baseline&quot;:71.19140625,&quot;baselineProportion&quot;:0.983142279163857,&quot;fontSize&quot;:100}"></path><path d="M171.01848,233.07299l0,3.56122l-0.03588,1.62363c0.43058,-0.38273 0.88806,-0.68773 1.37246,-0.91497c0.4844,-0.22725 0.97179,-0.34087 1.46216,-0.34087c1.1781,0 2.0557,0.39619 2.63279,1.18857c0.57709,0.79238 0.86564,1.91816 0.86564,3.37733c0,1.01066 -0.16745,1.87779 -0.50234,2.6014c-0.33489,0.72361 -0.79238,1.27229 -1.37246,1.64606c-0.58008,0.37376 -1.22894,0.56065 -1.94656,0.56065c-0.43058,0 -0.87012,-0.09568 -1.31864,-0.28705c-0.44852,-0.19137 -0.87012,-0.46347 -1.26482,-0.8163l-0.06279,0l-0.12558,0.87909l-1.19305,0l0,-13.07874l1.48907,0 M175.77276,241.58583c0,-1.08242 -0.17642,-1.90769 -0.52925,-2.47581c-0.35283,-0.56812 -0.95085,-0.85218 -1.79407,-0.85218c-0.75351,0 -1.56383,0.40665 -2.43096,1.21996l0,4.70045c0.37077,0.32293 0.74902,0.56065 1.13475,0.71314c0.38572,0.1525 0.74902,0.22874 1.08989,0.22874c0.50832,0 0.95235,-0.13904 1.33209,-0.41712c0.37974,-0.27808 0.67427,-0.68174 0.88358,-1.21099c0.20931,-0.52925 0.31396,-1.16465 0.31396,-1.90619z" data-paper-data="{&quot;elementType&quot;:&quot;letter&quot;,&quot;baseline&quot;:71.19140625,&quot;baselineProportion&quot;:0.983142279163857,&quot;fontSize&quot;:100}"></path><path d="M184.26816,245.24573c0,0.32293 -0.10465,0.59204 -0.31396,0.80733c-0.20931,0.21529 -0.46347,0.32293 -0.76248,0.32293c-0.30499,0 -0.56364,-0.10764 -0.77593,-0.32293c-0.2123,-0.21529 -0.31845,-0.4844 -0.31845,-0.80733c0,-0.34087 0.10615,-0.62045 0.31845,-0.83873c0.2123,-0.21828 0.47094,-0.32742 0.77593,-0.32742c0.30499,0 0.56065,0.10914 0.76696,0.32742c0.20632,0.21828 0.30948,0.49785 0.30948,0.83873z" data-paper-data="{&quot;elementType&quot;:&quot;letter&quot;,&quot;baseline&quot;:11.279296875,&quot;baselineProportion&quot;:0.90234375,&quot;fontSize&quot;:100}"></path><path d="M195.90318,238.04255l-0.74454,0.95983c-0.28107,-0.24519 -0.57111,-0.43357 -0.87012,-0.56513c-0.29901,-0.13156 -0.61895,-0.19735 -0.95983,-0.19735c-0.5442,0 -1.0271,0.13755 -1.44871,0.41264c-0.42161,0.27509 -0.75052,0.67128 -0.98674,1.18857c-0.23622,0.51729 -0.35433,1.12578 -0.35433,1.82546c0,0.70567 0.11512,1.32013 0.34536,1.8434c0.23024,0.52327 0.55317,0.92544 0.9688,1.20651c0.41563,0.28107 0.89554,0.42161 1.43974,0.42161c0.74753,0 1.42927,-0.2721 2.04523,-0.8163l0.67277,0.98674c-0.81331,0.71165 -1.76117,1.06747 -2.84359,1.06747c-0.80135,0 -1.51599,-0.1809 -2.14391,-0.5427c-0.62792,-0.3618 -1.12129,-0.89703 -1.4801,-1.60569c-0.35881,-0.70866 -0.53822,-1.56233 -0.53822,-2.56103c0,-0.9987 0.19137,-1.84938 0.5741,-2.55206c0.38273,-0.70268 0.89853,-1.23043 1.54738,-1.58326c0.64885,-0.35283 1.36499,-0.52925 2.14839,-0.52925c1.02262,0 1.89872,0.34685 2.62831,1.04056z" data-paper-data="{&quot;elementType&quot;:&quot;letter&quot;,&quot;baseline&quot;:49.8046875,&quot;baselineProportion&quot;:0.9760765550239234,&quot;fontSize&quot;:100}"></path><path d="M208.33656,241.68451c0,0.97478 -0.18389,1.81649 -0.55168,2.52515c-0.36778,0.70866 -0.86564,1.24688 -1.49356,1.61466c-0.62792,0.36778 -1.32462,0.55168 -2.09009,0.55168c-0.75949,0 -1.4517,-0.18389 -2.07663,-0.55168c-0.62493,-0.36778 -1.12129,-0.906 -1.48907,-1.61466c-0.36778,-0.70866 -0.55168,-1.55037 -0.55168,-2.52515c0,-0.98674 0.1824,-1.83294 0.54719,-2.5386c0.36479,-0.70567 0.85966,-1.2394 1.48459,-1.6012c0.62493,-0.3618 1.32013,-0.5427 2.0856,-0.5427c0.76547,0 1.46216,0.1824 2.09009,0.54719c0.62792,0.36479 1.12578,0.90002 1.49356,1.60569c0.36778,0.70567 0.55168,1.54888 0.55168,2.52963 M206.79366,241.68451c0,-0.69371 -0.10465,-1.3007 -0.31396,-1.82098c-0.20931,-0.52028 -0.50981,-0.92095 -0.90152,-1.20202c-0.3917,-0.28107 -0.85069,-0.42161 -1.37695,-0.42161c-0.52028,0 -0.97478,0.14054 -1.36349,0.42161c-0.38871,0.28107 -0.68773,0.68174 -0.89703,1.20202c-0.20931,0.52028 -0.31396,1.12727 -0.31396,1.82098c0,0.69371 0.10465,1.3007 0.31396,1.82098c0.20931,0.52028 0.50832,0.92245 0.89703,1.20651c0.38871,0.28406 0.84321,0.42609 1.36349,0.42609c0.52626,0 0.98524,-0.14203 1.37695,-0.42609c0.3917,-0.28406 0.69221,-0.68623 0.90152,-1.20651c0.20931,-0.52028 0.31396,-1.12727 0.31396,-1.82098z" data-paper-data="{&quot;elementType&quot;:&quot;letter&quot;,&quot;baseline&quot;:49.8046875,&quot;baselineProportion&quot;:0.9760765550239234,&quot;fontSize&quot;:100}"></path><path d="M214.62526,237.22625l0.13455,1.29173l0.05382,0c0.91497,-1.01066 1.83892,-1.51599 2.77183,-1.51599c0.69371,0 1.22894,0.13904 1.60569,0.41712c0.37675,0.27808 0.66081,0.69819 0.85218,1.26033c0.50832,-0.55018 0.9972,-0.9673 1.46665,-1.25136c0.46945,-0.28406 0.96132,-0.42609 1.47562,-0.42609c0.94487,0 1.63409,0.28406 2.06766,0.85218c0.43357,0.56812 0.65035,1.43226 0.65035,2.59243l0,5.70513l-1.48907,0l0,-5.49881c0,-0.56812 -0.05382,-1.02262 -0.16147,-1.36349c-0.10764,-0.34087 -0.28257,-0.59055 -0.52476,-0.74902c-0.2422,-0.15848 -0.56663,-0.23771 -0.97328,-0.23771c-0.35881,0 -0.72211,0.10764 -1.08989,0.32293c-0.36778,0.21529 -0.755,0.55317 -1.16166,1.01365l0,6.51246l-1.48907,0l0,-5.49881c0,-0.56812 -0.05532,-1.02262 -0.16595,-1.36349c-0.11063,-0.34087 -0.28705,-0.59055 -0.52925,-0.74902c-0.2422,-0.15848 -0.56962,-0.23771 -0.98225,-0.23771c-0.67576,0 -1.42628,0.45749 -2.25155,1.37246l0,6.47658l-1.48907,0l0,-8.92548l1.22894,0z" data-paper-data="{&quot;elementType&quot;:&quot;letter&quot;,&quot;baseline&quot;:49.8046875,&quot;baselineProportion&quot;:1,&quot;fontSize&quot;:100}"></path></g></g></g></g><g data-paper-data="{&quot;elementType&quot;:&quot;emblem&quot;}" fill="#bbf1f1" stroke-width="1"><g data-paper-data="{&quot;baselineProportion&quot;:0.9760765550239234,&quot;fontSize&quot;:100,&quot;baseline&quot;:49.8046875,&quot;elementType&quot;:&quot;word&quot;}"><path d="M151.16148,201.82205c10.61925,0 18.74961,-2.35061 24.39108,-7.05184c5.64148,-4.70123 8.46221,-10.81283 8.46221,-18.33479c0,-5.30962 -1.76987,-9.87258 -5.30962,-13.68887c-3.53975,-3.81629 -7.82616,-6.99654 -12.85924,-9.54073c-5.03308,-2.54419 -11.58715,-5.30962 -19.6622,-8.29629c-9.62369,-3.42913 -17.94763,-7.10715 -24.97182,-11.03406c-7.02419,-3.92691 -12.85924,-8.98764 -17.50517,-15.18221c-4.64592,-6.19456 -6.96888,-13.60591 -6.96888,-22.23405c0,-8.84937 2.26765,-16.81381 6.80296,-23.89331c4.5353,-7.0795 11.08937,-12.61036 19.6622,-16.59257c8.57283,-3.98222 18.72195,-5.97333 30.44737,-5.97333c9.73431,0 18.9985,1.65926 27.79256,4.97777c8.79406,3.31851 16.56492,7.68789 23.31257,13.10813l-13.10813,17.4222c-6.08394,-4.5353 -12.16789,-7.99209 -18.25183,-10.37036c-6.08394,-2.37827 -12.61036,-3.5674 -19.57924,-3.5674c-9.95554,0 -17.53282,2.10173 -22.73183,6.30518c-5.19901,4.20345 -7.79851,9.62369 -7.79851,16.26072c0,4.75654 1.65926,8.93234 4.97777,12.52739c3.31851,3.59506 7.52197,6.69234 12.61036,9.29184c5.08839,2.5995 11.50418,5.39259 19.24739,8.37925c10.61925,3.8716 19.30269,7.63258 26.05034,11.28295c6.74765,3.65037 12.49974,8.65579 17.25628,15.01628c4.75654,6.36049 7.13481,14.40788 7.13481,24.14219c0,9.07061 -2.35061,17.28393 -7.05184,24.63997c-4.70123,7.35604 -11.6148,13.1911 -20.74072,17.50517c-9.12592,4.31407 -19.99405,6.4711 -32.60441,6.4711c-11.17233,0 -21.98516,-2.10173 -32.43848,-6.30518c-10.45332,-4.20345 -19.88343,-9.73431 -28.29034,-16.59257l13.77184,-18.41776c8.07505,6.52641 15.7906,11.44888 23.14664,14.76739c7.35604,3.31851 15.62467,4.97777 24.8059,4.97777z" data-paper-data="{&quot;elementType&quot;:&quot;letter&quot;,&quot;baseline&quot;:49.8046875,&quot;baselineProportion&quot;:0.9760765550239234,&quot;fontSize&quot;:100}"></path></g></g></g></svg>